<svg width="54" height="54" viewBox="0 0 54 54" fill="none" xmlns="http://www.w3.org/2000/svg">
<path d="M52.9458 43.1394C52.9458 44.0684 52.7377 45.0232 52.2955 45.9522C51.8533 46.8812 51.281 47.7585 50.5267 48.5843C49.2521 49.9777 47.8474 50.9841 46.2607 51.6293C44.7 52.2744 43.0092 52.6098 41.1884 52.6098C38.5352 52.6098 35.6999 51.9905 32.7085 50.7261C29.7171 49.4617 26.7258 47.7585 23.7604 45.6167C20.769 43.4491 17.9337 41.0492 15.2285 38.3913C12.5493 35.7076 10.1302 32.8949 7.97119 29.9531C5.83821 27.0114 4.12143 24.0696 2.87286 21.1536C1.62429 18.2119 1 15.3991 1 12.7154C1 10.9607 1.31214 9.28338 1.93643 7.73509C2.56071 6.16099 3.54917 4.71591 4.9278 3.42566C6.59256 1.79995 8.41339 1 10.3383 1C11.0666 1 11.7949 1.15483 12.4452 1.46449C13.1215 1.77415 13.7198 2.23864 14.188 2.90956L20.2228 11.3478C20.691 11.9929 21.0292 12.5864 21.2633 13.1541C21.4974 13.696 21.6274 14.2379 21.6274 14.7282C21.6274 15.3475 21.4454 15.9669 21.0812 16.5604C20.743 17.1539 20.2488 17.7732 19.6245 18.3925L17.6476 20.4311C17.3615 20.715 17.2314 21.0504 17.2314 21.4633C17.2314 21.6697 17.2574 21.8504 17.3095 22.0568C17.3875 22.2633 17.4655 22.4181 17.5176 22.5729C17.9858 23.4245 18.7921 24.5341 19.9367 25.8759C21.1072 27.2178 22.3558 28.5855 23.7084 29.9531C25.113 31.3208 26.4657 32.5852 27.8443 33.7464C29.1969 34.8819 30.3154 35.656 31.1998 36.1205C31.3299 36.1721 31.486 36.2495 31.668 36.3269C31.8761 36.4044 32.0842 36.4302 32.3183 36.4302C32.7605 36.4302 33.0987 36.2753 33.3848 35.9915L35.3617 34.0561C36.012 33.411 36.6363 32.9207 37.2346 32.611C37.8329 32.2498 38.4311 32.0691 39.0814 32.0691C39.5757 32.0691 40.0959 32.1723 40.6682 32.4046C41.2404 32.6368 41.8387 32.9723 42.489 33.411L51.0989 39.4751C51.7752 39.9396 52.2434 40.4815 52.5296 41.1267C52.7897 41.7718 52.9458 42.4169 52.9458 43.1394Z" stroke="black" stroke-width="2" stroke-miterlimit="10"/>
</svg>
